<mxfile host="app.diagrams.net" modified="2024-11-05T09:20:44.008Z" agent="Mozilla/5.0 (Windows NT 10.0; Win64; x64) AppleWebKit/537.36 (KHTML, like Gecko) Chrome/130.0.0.0 Safari/537.36" etag="wXHxJ7t-6v-0zZq2_4k3" version="21.3.6" type="device">
  <diagram name="Pagina-1" id="YQIdLokviOuDQs6jbkDS">
    <mxGraphModel dx="955" dy="506" grid="1" gridSize="10" guides="1" tooltips="1" connect="1" arrows="1" fold="1" page="1" pageScale="1" pageWidth="827" pageHeight="1169" math="0" shadow="0">
      <root>
        <mxCell id="0" />
        <mxCell id="1" parent="0" />
        <mxCell id="Yv18B6Nu52sHHc9PZLmP-22" style="edgeStyle=none;rounded=0;orthogonalLoop=1;jettySize=auto;html=1;exitX=0.5;exitY=0.5;exitDx=0;exitDy=0;exitPerimeter=0;entryX=0;entryY=0.5;entryDx=0;entryDy=0;" edge="1" parent="1" source="Yv18B6Nu52sHHc9PZLmP-1" target="Yv18B6Nu52sHHc9PZLmP-12">
          <mxGeometry relative="1" as="geometry" />
        </mxCell>
        <mxCell id="Yv18B6Nu52sHHc9PZLmP-23" style="edgeStyle=none;rounded=0;orthogonalLoop=1;jettySize=auto;html=1;exitX=0.5;exitY=0.5;exitDx=0;exitDy=0;exitPerimeter=0;entryX=0;entryY=0.5;entryDx=0;entryDy=0;" edge="1" parent="1" source="Yv18B6Nu52sHHc9PZLmP-1" target="Yv18B6Nu52sHHc9PZLmP-14">
          <mxGeometry relative="1" as="geometry" />
        </mxCell>
        <mxCell id="Yv18B6Nu52sHHc9PZLmP-25" style="edgeStyle=none;rounded=0;orthogonalLoop=1;jettySize=auto;html=1;exitX=0.5;exitY=0.5;exitDx=0;exitDy=0;exitPerimeter=0;entryX=0;entryY=0.25;entryDx=0;entryDy=0;" edge="1" parent="1" source="Yv18B6Nu52sHHc9PZLmP-1" target="Yv18B6Nu52sHHc9PZLmP-15">
          <mxGeometry relative="1" as="geometry" />
        </mxCell>
        <mxCell id="Yv18B6Nu52sHHc9PZLmP-27" style="edgeStyle=none;rounded=0;orthogonalLoop=1;jettySize=auto;html=1;exitX=0.5;exitY=0.5;exitDx=0;exitDy=0;exitPerimeter=0;entryX=0;entryY=0.25;entryDx=0;entryDy=0;" edge="1" parent="1" source="Yv18B6Nu52sHHc9PZLmP-1" target="Yv18B6Nu52sHHc9PZLmP-16">
          <mxGeometry relative="1" as="geometry" />
        </mxCell>
        <mxCell id="Yv18B6Nu52sHHc9PZLmP-28" style="edgeStyle=none;rounded=0;orthogonalLoop=1;jettySize=auto;html=1;exitX=0.5;exitY=0.5;exitDx=0;exitDy=0;exitPerimeter=0;entryX=-0.019;entryY=0.4;entryDx=0;entryDy=0;entryPerimeter=0;" edge="1" parent="1" source="Yv18B6Nu52sHHc9PZLmP-1" target="Yv18B6Nu52sHHc9PZLmP-17">
          <mxGeometry relative="1" as="geometry" />
        </mxCell>
        <mxCell id="Yv18B6Nu52sHHc9PZLmP-29" style="edgeStyle=none;rounded=0;orthogonalLoop=1;jettySize=auto;html=1;exitX=0.5;exitY=0.5;exitDx=0;exitDy=0;exitPerimeter=0;entryX=0;entryY=0.5;entryDx=0;entryDy=0;" edge="1" parent="1" source="Yv18B6Nu52sHHc9PZLmP-1" target="Yv18B6Nu52sHHc9PZLmP-19">
          <mxGeometry relative="1" as="geometry" />
        </mxCell>
        <mxCell id="Yv18B6Nu52sHHc9PZLmP-30" style="edgeStyle=none;rounded=0;orthogonalLoop=1;jettySize=auto;html=1;exitX=0.5;exitY=0.5;exitDx=0;exitDy=0;exitPerimeter=0;entryX=0;entryY=0.5;entryDx=0;entryDy=0;" edge="1" parent="1" source="Yv18B6Nu52sHHc9PZLmP-1" target="Yv18B6Nu52sHHc9PZLmP-20">
          <mxGeometry relative="1" as="geometry" />
        </mxCell>
        <mxCell id="Yv18B6Nu52sHHc9PZLmP-1" value="Client&lt;br&gt;" style="shape=umlActor;verticalLabelPosition=bottom;verticalAlign=top;html=1;outlineConnect=0;" vertex="1" parent="1">
          <mxGeometry x="290" y="330" width="30" height="60" as="geometry" />
        </mxCell>
        <mxCell id="Yv18B6Nu52sHHc9PZLmP-8" value="" style="edgeStyle=orthogonalEdgeStyle;rounded=0;orthogonalLoop=1;jettySize=auto;html=1;" edge="1" parent="1" source="Yv18B6Nu52sHHc9PZLmP-2" target="Yv18B6Nu52sHHc9PZLmP-1">
          <mxGeometry relative="1" as="geometry" />
        </mxCell>
        <mxCell id="Yv18B6Nu52sHHc9PZLmP-36" style="edgeStyle=none;rounded=0;orthogonalLoop=1;jettySize=auto;html=1;exitX=0.5;exitY=0.5;exitDx=0;exitDy=0;exitPerimeter=0;" edge="1" parent="1" source="Yv18B6Nu52sHHc9PZLmP-2" target="Yv18B6Nu52sHHc9PZLmP-34">
          <mxGeometry relative="1" as="geometry" />
        </mxCell>
        <mxCell id="Yv18B6Nu52sHHc9PZLmP-2" value="Admin&lt;br&gt;" style="shape=umlActor;verticalLabelPosition=bottom;verticalAlign=top;html=1;outlineConnect=0;" vertex="1" parent="1">
          <mxGeometry x="290" y="620" width="30" height="60" as="geometry" />
        </mxCell>
        <mxCell id="Yv18B6Nu52sHHc9PZLmP-12" value="Log In" style="rounded=0;whiteSpace=wrap;html=1;" vertex="1" parent="1">
          <mxGeometry x="400" y="290" width="80" height="20" as="geometry" />
        </mxCell>
        <mxCell id="Yv18B6Nu52sHHc9PZLmP-14" value="Sign Up" style="rounded=0;whiteSpace=wrap;html=1;" vertex="1" parent="1">
          <mxGeometry x="400" y="320" width="80" height="20" as="geometry" />
        </mxCell>
        <mxCell id="Yv18B6Nu52sHHc9PZLmP-15" value="Search statistic by country" style="rounded=0;whiteSpace=wrap;html=1;" vertex="1" parent="1">
          <mxGeometry x="400" y="350" width="80" height="40" as="geometry" />
        </mxCell>
        <mxCell id="Yv18B6Nu52sHHc9PZLmP-16" value="Search global statistics" style="rounded=0;whiteSpace=wrap;html=1;" vertex="1" parent="1">
          <mxGeometry x="400" y="400" width="80" height="40" as="geometry" />
        </mxCell>
        <mxCell id="Yv18B6Nu52sHHc9PZLmP-17" value="Search for other clients statistics" style="rounded=0;whiteSpace=wrap;html=1;" vertex="1" parent="1">
          <mxGeometry x="400" y="450" width="80" height="60" as="geometry" />
        </mxCell>
        <mxCell id="Yv18B6Nu52sHHc9PZLmP-19" value="Watch his tracks" style="rounded=0;whiteSpace=wrap;html=1;" vertex="1" parent="1">
          <mxGeometry x="400" y="525" width="80" height="25" as="geometry" />
        </mxCell>
        <mxCell id="Yv18B6Nu52sHHc9PZLmP-20" value="Search history" style="rounded=0;whiteSpace=wrap;html=1;" vertex="1" parent="1">
          <mxGeometry x="400" y="560" width="80" height="25" as="geometry" />
        </mxCell>
        <mxCell id="Yv18B6Nu52sHHc9PZLmP-31" value="Search Client" style="rounded=0;whiteSpace=wrap;html=1;" vertex="1" parent="1">
          <mxGeometry x="540" y="595" width="80" height="30" as="geometry" />
        </mxCell>
        <mxCell id="Yv18B6Nu52sHHc9PZLmP-32" value="Delete Client" style="rounded=0;whiteSpace=wrap;html=1;" vertex="1" parent="1">
          <mxGeometry x="540" y="635" width="80" height="30" as="geometry" />
        </mxCell>
        <mxCell id="Yv18B6Nu52sHHc9PZLmP-33" value="Update Client" style="rounded=0;whiteSpace=wrap;html=1;" vertex="1" parent="1">
          <mxGeometry x="540" y="675" width="80" height="30" as="geometry" />
        </mxCell>
        <mxCell id="Yv18B6Nu52sHHc9PZLmP-37" style="edgeStyle=none;rounded=0;orthogonalLoop=1;jettySize=auto;html=1;exitX=1;exitY=0.5;exitDx=0;exitDy=0;entryX=0;entryY=0.5;entryDx=0;entryDy=0;" edge="1" parent="1" source="Yv18B6Nu52sHHc9PZLmP-34" target="Yv18B6Nu52sHHc9PZLmP-32">
          <mxGeometry relative="1" as="geometry">
            <Array as="points" />
          </mxGeometry>
        </mxCell>
        <mxCell id="Yv18B6Nu52sHHc9PZLmP-40" style="edgeStyle=none;rounded=0;orthogonalLoop=1;jettySize=auto;html=1;exitX=1;exitY=0.5;exitDx=0;exitDy=0;entryX=0;entryY=0.5;entryDx=0;entryDy=0;" edge="1" parent="1" source="Yv18B6Nu52sHHc9PZLmP-34" target="Yv18B6Nu52sHHc9PZLmP-33">
          <mxGeometry relative="1" as="geometry" />
        </mxCell>
        <mxCell id="Yv18B6Nu52sHHc9PZLmP-41" style="edgeStyle=none;rounded=0;orthogonalLoop=1;jettySize=auto;html=1;exitX=1;exitY=0.5;exitDx=0;exitDy=0;entryX=0;entryY=0.5;entryDx=0;entryDy=0;" edge="1" parent="1" source="Yv18B6Nu52sHHc9PZLmP-34" target="Yv18B6Nu52sHHc9PZLmP-31">
          <mxGeometry relative="1" as="geometry" />
        </mxCell>
        <mxCell id="Yv18B6Nu52sHHc9PZLmP-34" value="Admin Dashboard" style="rounded=0;whiteSpace=wrap;html=1;" vertex="1" parent="1">
          <mxGeometry x="390" y="635" width="90" height="30" as="geometry" />
        </mxCell>
      </root>
    </mxGraphModel>
  </diagram>
</mxfile>
